<?xml version="1.0" encoding="utf-8"?>
<!-- Generator: Adobe Illustrator 16.0.0, SVG Export Plug-In . SVG Version: 6.00 Build 0)  -->
<!DOCTYPE svg PUBLIC "-//W3C//DTD SVG 1.1//EN" "http://www.w3.org/Graphics/SVG/1.1/DTD/svg11.dtd">
<svg version="1.1" id="Layer_1" xmlns="http://www.w3.org/2000/svg" xmlns:xlink="http://www.w3.org/1999/xlink" x="0px" y="0px"
	 width="67px" height="67px" viewBox="0 0 67 67" enable-background="new 0 0 67 67" xml:space="preserve">
<g>
	<path fill="#00AEEF" d="M56.611,67H10.389C4.66,67,0,62.339,0,56.611V10.389C0,4.66,4.66,0,10.389,0h46.223
		C62.34,0,67,4.66,67,10.389v46.222C67,62.339,62.34,67,56.611,67z M10.389,3C6.314,3,3,6.314,3,10.389v46.222
		C3,60.685,6.314,64,10.389,64h46.223C60.686,64,64,60.685,64,56.611V10.389C64,6.314,60.686,3,56.611,3H10.389z"/>
	<g>
		<path fill="#56B8E8" d="M21.283,17.129h15.913c2.935,0,5.288,0.673,7.062,2.018c1.772,1.346,2.659,3.379,2.659,6.1
			c0,1.65-0.405,3.064-1.215,4.242c-0.811,1.177-1.965,2.086-3.462,2.728v0.093c2.018,0.428,3.546,1.383,4.585,2.865
			c1.039,1.484,1.561,3.34,1.561,5.572c0,1.283-0.23,2.484-0.688,3.6c-0.459,1.117-1.177,2.08-2.155,2.889
			c-0.979,0.811-2.232,1.453-3.76,1.926c-1.529,0.475-3.348,0.711-5.457,0.711H21.283V17.129z M27.015,30.84h9.354
			c1.376,0,2.522-0.39,3.439-1.169s1.376-1.902,1.376-3.37c0-1.65-0.413-2.812-1.238-3.485c-0.825-0.672-2.018-1.009-3.577-1.009
			h-9.354V30.84z M27.015,45.193h10.135c1.742,0,3.095-0.449,4.058-1.352s1.445-2.18,1.445-3.83c0-1.619-0.482-2.865-1.445-3.736
			c-0.963-0.873-2.315-1.307-4.058-1.307H27.015V45.193z"/>
	</g>
</g>
</svg>
