<?xml version="1.0" encoding="utf-8"?>
<!-- Generator: Adobe Illustrator 16.0.0, SVG Export Plug-In . SVG Version: 6.00 Build 0)  -->
<!DOCTYPE svg PUBLIC "-//W3C//DTD SVG 1.1//EN" "http://www.w3.org/Graphics/SVG/1.1/DTD/svg11.dtd">
<svg version="1.1" id="Layer_1" xmlns="http://www.w3.org/2000/svg" xmlns:xlink="http://www.w3.org/1999/xlink" x="0px" y="0px"
	 width="200px" height="70px" viewBox="0 0 200 70" enable-background="new 0 0 200 70" xml:space="preserve">
<g>
	<path fill="#131B28" d="M88.359,29.485L88.359,29.485l-1.029,3.648L88.359,29.485L88.359,29.485z"/>
	<path fill="#131B28" d="M93.655,37.406L92.521,37.4L93.655,37.406z"/>
	<path fill="#131B28" d="M93.363,42.857h0.001l-6.798,0.023L93.363,42.857L93.363,42.857z"/>
	<path fill="#131B28" d="M94.788,37.414l-1.135-0.008L94.788,37.414z"/>
	<path fill="#131B28" d="M93.958,42.395l1.185-4.518L93.958,42.395L93.958,42.395L93.958,42.395z"/>
	<path fill="#131B28" d="M118.987,21.596l-2.207,10.37L118.987,21.596z"/>
	<path fill="#131B28" d="M113.316,21.596l-1.675,7.748L113.316,21.596L113.316,21.596z"/>
	<path fill="#131B28" d="M118.608,21.13h-4.717c-0.262,0-0.521,0.21-0.577,0.465l-1.675,7.748l-1.674,7.747
		c-0.057,0.258-0.316,0.467-0.578,0.467h-2.861h-0.477c-3.303,0-2.921-2.285-2.244-5.416c0.006-0.031,0.014-0.062,0.02-0.095
		l0.074-0.394c0.006-0.026,0.01-0.052,0.014-0.074l0.151-0.804l0.161-0.861c0.05-0.26,0.123-0.639,0.174-0.877l0.76-3.72l0.762-3.72
		c0.054-0.257-0.118-0.467-0.381-0.467h-4.841c-0.263,0-0.521,0.21-0.575,0.466l-1.04,4.938l-1.041,4.939
		c-0.001,0.002-0.001,0.006-0.002,0.007l-0.097,0.459c-1.198,5.476-0.881,10.695,5.637,10.859c0.105,0.002,0.188,0.004,0.188,0.004
		h10.23c0.262,0,0.521-0.211,0.575-0.467l2.206-10.37l2.205-10.37C119.04,21.34,118.87,21.13,118.608,21.13L118.608,21.13z"/>
	<path fill="#131B28" d="M137.426,37.609c0.263,0,0.435,0.209,0.382,0.467l-0.459,2.238"/>
	<path fill="#131B28" d="M136.892,42.555l0.457-2.24L136.892,42.555L136.892,42.555L136.892,42.555z"/>
	<path fill="#131B28" d="M136.317,43.025c0.001,0,0.002,0,0.002,0c-1.389,0.01-5.56,0.043-8.695,0.043
		C131.44,43.068,136.317,43.025,136.317,43.025L136.317,43.025z"/>
	<path fill="#131B28" d="M124.81,34.727c-0.003-0.246,0.275-0.668,0.539-0.668l-0.59-0.009
		C124.493,36.719,124.81,34.727,124.81,34.727L124.81,34.727z"/>
	<path fill="#131B28" d="M128.054,43.066c-0.029,0-0.061,0-0.09,0C127.993,43.066,128.024,43.066,128.054,43.066z"/>
	<path fill="#131B28" d="M137.426,37.609c0.263,0,0.435,0.209,0.382,0.467l-0.459,2.238l-0.074,0.365"/>
	<path fill="#131B28" d="M130.288,43.062h-0.02H130.288z"/>
	<path fill="#131B28" d="M129.13,43.066h-0.067H129.13z"/>
	<path fill="#131B28" d="M128.776,43.066c-0.037,0-0.074,0-0.111,0C128.702,43.066,128.739,43.066,128.776,43.066z"/>
	<path fill="#131B28" d="M128.417,43.066h-0.098H128.417z"/>
	<path fill="#131B28" d="M129.062,43.066c-0.096,0-0.191,0-0.285,0C128.87,43.066,128.966,43.066,129.062,43.066z"/>
	<path fill="#131B28" d="M130.269,43.062c-0.381,0-0.762,0.002-1.138,0.004C129.507,43.064,129.888,43.062,130.269,43.062z"/>
	<path fill="#131B28" d="M136.321,43.025L136.321,43.025c-1.018,0.008-3.529,0.027-6.035,0.037
		C132.79,43.053,135.303,43.033,136.321,43.025z"/>
	<path fill="#131B28" d="M136.892,42.557l0.384-1.877L136.892,42.557L136.892,42.557L136.892,42.557z"/>
	<path fill="#131B28" d="M128.665,43.066h-0.248H128.665z"/>
	<path fill="#131B28" d="M127.962,43.066h-0.336H127.962z"/>
	<path fill="#131B28" d="M128.319,43.066h-0.267H128.319z"/>
	<path fill="#131B28" d="M59.319,34.783l0.732-3.249l-0.838,3.713l-0.804,3.781l0.705-3.316
		C59.169,35.457,59.261,35.037,59.319,34.783L59.319,34.783z"/>
	<path fill="#131B28" d="M68.089,21.076h-5.18c-0.262,0-0.523,0.209-0.582,0.464l-0.492,2.169l-0.491,2.168
		c-0.058,0.255,0.109,0.464,0.371,0.464h5.221c0.261,0,0.521-0.209,0.578-0.464l0.475-2.168l0.474-2.167V21.54
		C68.52,21.285,68.351,21.076,68.089,21.076L68.089,21.076z"/>
	<path fill="#131B28" d="M66.961,28.287L66.961,28.287l-1.519,7.03L66.961,28.287z"/>
	<path fill="#131B28" d="M51.914,51.576c0,0,2.611,0.033,4.271,0.033c-1.261,0-3.344-0.023-4.273-0.033
		C51.912,51.576,51.912,51.576,51.914,51.576L51.914,51.576z"/>
	<path fill="#131B28" d="M60.784,28.287l-0.733,3.248L60.784,28.287z"/>
	<path fill="#131B28" d="M66.587,27.822h-5.221c-0.261,0-0.524,0.209-0.582,0.465l-0.733,3.248l-0.733,3.249
		c-0.058,0.254-0.15,0.674-0.204,0.93l-0.705,3.316l-0.704,3.316c-0.055,0.254-0.167,0.668-0.251,0.916c0,0-0.976,2.902-2.615,2.869
		c-0.07-0.002-0.138-0.002-0.205-0.004c-0.795-0.016-1.419-0.025-1.419-0.025h-0.001c-0.262-0.004-0.524,0.199-0.586,0.453
		l-0.541,2.277l-0.541,2.275c-0.061,0.254,0.104,0.463,0.364,0.469c0.93,0.01,3.013,0.033,4.273,0.033
		c4.096,0,6.255-2.27,7.64-8.799l1.62-7.494l1.519-7.03C67.018,28.031,66.849,27.822,66.587,27.822L66.587,27.822z"/>
	<path fill="#131B28" d="M140.753,42.803c-0.262,0-0.432-0.211-0.377-0.467l3.928-18.397"/>
	<path fill="#131B28" d="M146.211,42.334l1.589-7.852L146.211,42.334z"/>
	<path fill="#131B28" d="M140.433,42.568c-0.031-0.127-0.013-0.441,0.043-0.697l1.863-8.733l-1.963,9.198
		c-0.055,0.256,0.115,0.467,0.377,0.467h0.477C140.968,42.803,140.464,42.697,140.433,42.568L140.433,42.568z"/>
	<path fill="#131B28" d="M145.901,42.697c-0.143,0.057-0.475,0.105-0.736,0.105h0.477c0.262,0,0.52-0.211,0.57-0.469l0.096-0.467
		C146.255,42.125,146.044,42.639,145.901,42.697L145.901,42.697z"/>
	<path fill="#131B28" d="M147.007,38.408l0.701-3.465c0,0.002-0.001,0.006-0.001,0.006L147.007,38.408L147.007,38.408z"/>
	<path fill="#131B28" d="M162.503,25.171l0.217,0.894c0.061,0.256-0.105,0.464-0.367,0.464"/>
	<path fill="#131B28" d="M146.306,41.869l0.7-3.459L146.306,41.869z"/>
	<path fill="#131B28" d="M162.288,24.255l0.215,0.916L162.288,24.255z"/>
	<path fill="#131B28" d="M147.707,34.943c0.052-0.256,0.138-0.672,0.192-0.926l0.749-3.508l-0.848,3.975L147.707,34.943
		L147.707,34.943z"/>
	<path fill="#131B28" d="M144.368,23.637c-0.053,0.247-0.119,0.561-0.162,0.769l-1.865,8.732l1.964-9.198L144.368,23.637
		L144.368,23.637z"/>
	<path fill="#131B28" d="M162.719,26.065l-0.216-0.894l-0.215-0.916l-0.108-0.463c-0.425-1.647-1.669-2.599-4.372-2.599
		l-4.208-0.005l-3.876-0.004h-0.332h-4.028c-0.263,0-0.521,0.208-0.575,0.466l0,0l-0.193,0.911l-0.227,1.075l-0.063,0.303
		l-1.964,9.198l-1.864,8.733c-0.056,0.256-0.074,0.57-0.042,0.697c0.031,0.129,0.533,0.234,0.796,0.234h3.935
		c0.262,0,0.593-0.049,0.736-0.105c0.143-0.057,0.354-0.572,0.405-0.83l0.699-3.459l0.7-3.459c0,0,0.001-0.004,0.001-0.006
		l0.094-0.459l0.848-3.975l0.749-3.51c0.057-0.255,0.314-0.463,0.576-0.465l12.379-0.006
		C162.612,26.529,162.778,26.321,162.719,26.065L162.719,26.065z"/>
	<path fill="#131B28" d="M178.655,17.983c-0.263,0.001-0.691,0.004-0.953,0.004h-3.963c-0.262,0-0.598,0.177-0.745,0.393
		l-8.761,12.836c-0.148,0.216-0.317,0.185-0.376-0.07l-0.645-2.828c-0.058-0.256-0.32-0.465-0.582-0.465h-5.633
		c-0.263,0-0.417,0.205-0.345,0.458l2.523,8.842c0.072,0.25,0.077,0.664,0.012,0.92l-1.1,4.277
		c-0.064,0.254,0.096,0.463,0.357,0.463h5.568c0.261,0,0.528-0.209,0.594-0.463l1.1-4.277c0.064-0.256,0.248-0.635,0.405-0.844
		l14.224-18.877c0.158-0.211,0.072-0.38-0.189-0.378L178.655,17.983L178.655,17.983z"/>
	<path fill="#131B28" d="M133.905,29.055V29.05c-0.033,0.284-0.295,0.493-0.557,0.493h-7.141c-0.246,0-0.373-0.168-0.336-0.375
		c0.002-0.006,0.002-0.012,0.007-0.017c0,0-0.003,0-0.005,0.002c0.002-0.008,0.002-0.016,0.004-0.023c0,0,0.014-0.051,0.033-0.122
		c0.682-1.813,2.07-3.004,4.682-3.004C133.532,26.004,134.105,27.442,133.905,29.055L133.905,29.055z M131.812,20.814
		c-9.167,0-11.338,5.562-12.559,11.178c-1.217,5.725-1.112,11.075,8.373,11.075h0.336c0.03,0,0.062,0,0.091,0h0.267h0.096h0.25
		c0.037,0,0.073,0,0.11,0c0.095,0,0.19,0,0.286,0h0.066c0.377-0.002,0.757-0.004,1.139-0.004h0.02
		c2.504-0.01,5.018-0.029,6.035-0.037c0.26-0.004,0.515-0.215,0.568-0.469l0.383-1.877l0.076-0.365l0.457-2.238
		c0.053-0.258-0.119-0.467-0.381-0.467h-8.527c-3.391,0-4.398-0.9-4.027-3.551h13.631l-0.001,0.002c0.003,0,0.007-0.002,0.01-0.002
		c0.216-0.004,0.417-0.152,0.496-0.352c0.015-0.037,0.028-0.077,0.032-0.119v0.002c2.023-7.634,1.443-12.775-7.229-12.775H131.812z"
		/>
	<path fill="#131B28" d="M88.488,29.027l-0.128,0.457c0,0.001-0.001,0.001-0.001,0.001l-1.029,3.648l-1.028,3.648
		c-0.071,0.25-0.344,0.457-0.606,0.457h-5.448c-4.132,0-5.139-3.232-4.132-8c1.006-4.876,2.979-7.906,7.046-8.214
		C88.718,20.606,89.831,24.515,88.488,29.027L88.488,29.027z M92.224,36.957c0,0,2.568-6.236,3.152-9.838
		c0.795-4.822-1.619-11.816-10.945-11.816c-9.272,0-13.298,6.678-14.835,13.936c-1.536,7.311,0.477,13.723,9.696,13.67l7.274-0.027
		l6.798-0.023c0.261-0.004,0.529-0.211,0.596-0.463l1.184-4.518c0.066-0.254-0.094-0.461-0.355-0.463l-1.135-0.008L92.519,37.4
		c-0.223-0.002-0.35-0.146-0.323-0.338C92.201,37.029,92.208,36.994,92.224,36.957L92.224,36.957z"/>
	<path fill="#131B28" d="M138.126,32.783c0,0.173-0.139,0.313-0.312,0.313c-0.172,0-0.312-0.141-0.312-0.313
		s0.141-0.312,0.312-0.312C137.987,32.47,138.126,32.61,138.126,32.783z"/>
	<path fill="#0A69AD" d="M21.42,24.673c-2.561,3.682-2.242,8.469-0.286,12.379c0.047,0.094,0.096,0.186,0.144,0.277
		c0.031,0.059,0.059,0.119,0.091,0.176c0.018,0.035,0.038,0.068,0.057,0.102c0.034,0.062,0.068,0.121,0.102,0.184
		c0.061,0.105,0.124,0.213,0.187,0.318c0.036,0.059,0.07,0.117,0.106,0.176c0.07,0.113,0.143,0.227,0.216,0.34
		c0.031,0.047,0.062,0.096,0.093,0.143c0.102,0.15,0.206,0.303,0.314,0.453c0.002,0.004,0.005,0.006,0.008,0.012
		c0.017,0.023,0.036,0.047,0.053,0.07c0.093,0.127,0.189,0.256,0.287,0.381c0.036,0.045,0.072,0.092,0.108,0.137
		c0.086,0.109,0.174,0.217,0.264,0.324c0.033,0.041,0.067,0.082,0.101,0.121c0.121,0.141,0.243,0.283,0.368,0.42
		c0.002,0.002,0.005,0.006,0.008,0.01c0.005,0.006,0.01,0.008,0.015,0.016c0.122,0.133,0.247,0.262,0.374,0.395
		c0.039,0.039,0.079,0.08,0.12,0.119c0.098,0.1,0.198,0.195,0.298,0.293c0.041,0.039,0.082,0.08,0.123,0.115
		c0.135,0.129,0.271,0.254,0.409,0.375c0.002,0,0.004,0.004,0.007,0.004c0.022,0.021,0.047,0.041,0.071,0.062
		c0.122,0.105,0.247,0.209,0.372,0.312c0.052,0.041,0.104,0.082,0.154,0.123c0.103,0.082,0.206,0.162,0.31,0.242
		c0.055,0.043,0.11,0.084,0.166,0.127c0.116,0.084,0.231,0.168,0.349,0.25c0.042,0.029,0.084,0.061,0.126,0.09
		c0.012,0.008,0.023,0.016,0.035,0.023c0.11,0.078,0.224,0.15,0.338,0.225c0.048,0.031,0.097,0.066,0.146,0.098
		c0.174,0.109,0.351,0.219,0.529,0.324c0.048,0.027,0.097,0.055,0.146,0.082c0.131,0.074,0.263,0.15,0.397,0.223
		c0.072,0.039,0.146,0.076,0.22,0.113c0.095,0.049,0.188,0.1,0.284,0.146c0.022,0.012,0.044,0.021,0.066,0.033
		c0.039,0.018,0.078,0.035,0.116,0.055c0.148,0.072,0.299,0.143,0.451,0.209c0.032,0.016,0.063,0.029,0.095,0.043
		c0.173,0.076,0.349,0.148,0.525,0.219c0.042,0.016,0.085,0.033,0.128,0.051c0.164,0.062,0.329,0.125,0.496,0.184
		c0.021,0.008,0.041,0.014,0.062,0.021c0.183,0.064,0.368,0.123,0.553,0.18c0.044,0.014,0.089,0.027,0.134,0.041
		c0.188,0.057,0.375,0.125,0.571,0.16c12.381,2.258,15.978-7.441,15.978-7.441c-3.021,3.936-8.382,4.975-13.462,3.818
		c-0.192-0.043-0.379-0.104-0.567-0.158c-0.047-0.016-0.094-0.029-0.142-0.043c-0.183-0.057-0.365-0.115-0.546-0.178
		c-0.025-0.01-0.05-0.018-0.075-0.027c-0.162-0.057-0.322-0.117-0.481-0.178c-0.045-0.018-0.09-0.037-0.135-0.053
		c-0.175-0.07-0.349-0.143-0.52-0.217c-0.035-0.016-0.069-0.031-0.104-0.045c-0.147-0.068-0.292-0.135-0.438-0.205
		c-0.042-0.021-0.083-0.039-0.127-0.061c-0.114-0.057-0.226-0.115-0.339-0.174c-0.075-0.039-0.151-0.076-0.226-0.117
		c-0.137-0.074-0.272-0.15-0.407-0.229c-0.045-0.025-0.091-0.051-0.137-0.076c-0.179-0.105-0.354-0.215-0.529-0.324
		c-0.049-0.031-0.096-0.062-0.143-0.094c-0.126-0.082-0.253-0.166-0.376-0.252c-0.042-0.027-0.082-0.059-0.122-0.086
		c-0.12-0.084-0.239-0.17-0.356-0.258c-0.053-0.039-0.106-0.078-0.158-0.119c-0.107-0.082-0.215-0.166-0.321-0.25
		c-0.048-0.039-0.096-0.076-0.144-0.115c-0.135-0.111-0.269-0.223-0.4-0.338c-0.014-0.012-0.028-0.023-0.043-0.035
		c-0.143-0.125-0.283-0.254-0.421-0.383c-0.04-0.039-0.08-0.076-0.119-0.113c-0.102-0.098-0.203-0.197-0.302-0.299
		c-0.04-0.039-0.08-0.078-0.118-0.117c-0.126-0.129-0.25-0.26-0.372-0.393c-0.005-0.006-0.012-0.012-0.018-0.018
		c-0.128-0.141-0.254-0.285-0.376-0.43c-0.033-0.041-0.065-0.078-0.098-0.117c-0.092-0.111-0.182-0.221-0.271-0.334
		c-0.033-0.041-0.066-0.082-0.099-0.125c-0.106-0.137-0.211-0.275-0.313-0.416c-2.82-3.846-3.833-9.154-1.58-13.51"/>
	<path fill="#0A69AD" d="M29.368,21.574c-1.852,2.665-1.751,6.231-0.307,9.05c0.242,0.472,0.514,0.931,0.819,1.366
		c0.277,0.397,0.585,0.872,0.953,1.19c0.133,0.146,0.272,0.291,0.415,0.432c0.036,0.036,0.073,0.072,0.11,0.108
		c0.138,0.133,0.279,0.266,0.424,0.393c0.006,0.004,0.011,0.012,0.017,0.016c0.001,0.002,0.003,0.002,0.004,0.004
		c0.161,0.141,0.327,0.275,0.496,0.41c0.038,0.029,0.075,0.059,0.112,0.088c0.169,0.129,0.342,0.256,0.519,0.379
		c0.005,0.004,0.009,0.008,0.015,0.012c0.078,0.055,0.158,0.104,0.236,0.156c0.038,0.023,0.074,0.051,0.112,0.072
		c0.126,0.082,0.255,0.16,0.385,0.236c0.019,0.012,0.036,0.021,0.055,0.031c0.111,0.064,0.225,0.129,0.339,0.189
		c0.04,0.023,0.08,0.043,0.121,0.064c0.078,0.041,0.157,0.082,0.237,0.123c0.011,0.006,0.024,0.01,0.036,0.016
		c0.164,0.08,0.328,0.158,0.496,0.23c0.036,0.018,0.073,0.029,0.109,0.045c0.134,0.057,0.27,0.113,0.406,0.166
		c0.058,0.021,0.116,0.043,0.174,0.062c0.124,0.047,0.248,0.088,0.373,0.131c0.057,0.018,0.113,0.037,0.169,0.055
		c0.178,0.055,0.354,0.125,0.54,0.156c9.561,1.582,11.767-5.778,11.767-5.778c-1.99,2.866-5.842,4.233-9.954,3.165
		c-0.183-0.047-0.363-0.099-0.542-0.156c-0.055-0.017-0.108-0.035-0.163-0.053c-0.127-0.041-0.254-0.085-0.379-0.13
		c-0.058-0.021-0.115-0.042-0.17-0.063c-0.138-0.054-0.273-0.108-0.408-0.165c-0.038-0.016-0.074-0.03-0.11-0.047
		c-0.169-0.073-0.334-0.15-0.499-0.23c-0.084-0.043-0.167-0.086-0.25-0.128c-0.047-0.025-0.096-0.051-0.144-0.074
		c-0.107-0.058-0.213-0.118-0.317-0.179c-0.025-0.014-0.051-0.028-0.076-0.043c-0.129-0.076-0.257-0.154-0.383-0.234
		c-0.039-0.024-0.077-0.052-0.115-0.077c-0.083-0.054-0.167-0.109-0.249-0.163c-0.176-0.123-0.348-0.249-0.517-0.379
		c-0.039-0.03-0.077-0.061-0.116-0.092c-1.8-1.421-3.227-3.362-3.905-5.564c-0.71-2.283-0.557-4.847,0.674-6.927"/>
	<path fill="#0A69AD" d="M36.052,19.257c-1.091,1.606-1.198,3.602-0.441,5.375c0.799,1.884,2.436,3.361,4.346,4.062
		c0.079,0.03,0.157,0.055,0.237,0.083c0.035,0.011,0.069,0.022,0.104,0.032c0.113,0.036,0.225,0.077,0.341,0.099
		c5.279,1.02,6.71-2.709,7.091-3.258c-1.254,1.807-3.362,2.239-5.948,1.611c-0.204-0.049-0.429-0.124-0.626-0.193
		c-0.253-0.09-0.501-0.192-0.743-0.308c-0.459-0.222-0.897-0.488-1.303-0.795c-2.314-1.756-3.752-5.106-2.242-7.835"/>
	<path fill="#0A69AD" d="M95.504,50.545l-1.521,3.465h-1.68l0.137-3.148l-1.236,3.148h-1.627l-0.042-3.465l0.18-0.855h1.152
		l-0.222,3.422l1.278-3.422h1.606l-0.116,3.465l1.268-3.465h1.003L95.504,50.545L95.504,50.545z"/>
	<path fill="#0A69AD" d="M98.154,51.57c0.148-0.676,0.106-0.803-0.243-0.803h-0.528l-0.338,1.586l-0.518,1.658h-0.982l0.802-3.762
		l0.117-0.551h0.897l0.116,0.254c0,0,0.518-0.307,1.024-0.307c1.078,0,0.993,0.812,0.761,1.924H98.154L98.154,51.57z"/>
	<path fill="#0A69AD" d="M101.346,49.148c-0.433,0-0.707-0.125-0.603-0.654c0.117-0.527,0.455-0.654,0.877-0.654
		c0.424,0,0.709,0.127,0.592,0.654C102.106,49.012,101.769,49.148,101.346,49.148L101.346,49.148z M100.882,54.012h-0.973
		l0.189-1.691l0.338-1.564l-0.676-0.148l0.19-0.918h1.849l-0.918,4.32V54.012z"/>
	<path fill="#0A69AD" d="M105.097,50.605l-1.215,0.148l-0.35,1.648c-0.095,0.455-0.095,0.582,0.307,0.582h0.813l-0.169,0.867
		c0,0-0.74,0.221-1.057,0.221c-1.246,0-1.236-0.688-1.014-1.713l0.338-1.615l-0.676-0.148l0.199-0.918h0.709l0.402-1.09h0.961
		l-0.232,1.09h1.183L105.097,50.605L105.097,50.605z"/>
	<path fill="#0A69AD" d="M107.62,50.66c-0.568,0-0.865,0.297-0.98,0.826l1.627-0.139C108.34,50.988,108.267,50.66,107.62,50.66
		L107.62,50.66z M106.481,52.266c-0.075,0.529,0.125,0.709,0.801,0.709h1.701l-0.168,0.803c0,0-1.025,0.285-1.785,0.285
		c-1.893,0-1.913-1.064-1.67-2.207c0.242-1.121,0.676-2.229,2.504-2.229c1.765,0,1.85,1.066,1.416,2.639H106.481L106.481,52.266z"/>
	<path fill="#0A69AD" d="M113.157,54.01h-0.973l0.19-1.691l0.687-3.211l-0.676-0.158l0.201-0.92h1.848L113.157,54.01L113.157,54.01z
		"/>
	<path fill="#0A69AD" d="M116.667,50.66c-0.57,0-0.865,0.297-0.982,0.826l1.627-0.139C117.386,50.988,117.312,50.66,116.667,50.66
		L116.667,50.66z M115.526,52.266c-0.074,0.529,0.127,0.709,0.803,0.709h1.701l-0.169,0.803c0,0-1.025,0.285-1.786,0.285
		c-1.893,0-1.912-1.064-1.669-2.207c0.243-1.121,0.677-2.229,2.504-2.229c1.765,0,1.849,1.066,1.417,2.639H115.526L115.526,52.266z"
		/>
	<path fill="#0A69AD" d="M122.782,50.713c0,0-1.235,0.012-1.573,0.012c-0.718,0-0.792,0.221-0.845,0.453l-0.043,0.211l2.283,0.17
		c0,0,0.01,0.729-0.086,1.141c-0.137,0.688-0.845,1.383-2.123,1.383c-0.635,0-1.658-0.24-1.658-0.24l0.178-0.836h1.576
		c0.697,0,0.791-0.189,0.834-0.381l0.053-0.273l-2.24-0.17c0,0-0.084-0.561,0.031-1.119c0.17-0.762,0.867-1.416,2.146-1.416
		c0.633,0,1.658,0.23,1.658,0.23L122.782,50.713L122.782,50.713z"/>
	<path fill="#0A69AD" d="M127.031,50.713c0,0-1.235,0.012-1.573,0.012c-0.719,0-0.793,0.221-0.846,0.453l-0.043,0.211l2.283,0.17
		c0,0,0.01,0.729-0.085,1.141c-0.138,0.688-0.845,1.383-2.124,1.383c-0.633,0-1.658-0.24-1.658-0.24l0.179-0.836h1.575
		c0.696,0,0.792-0.189,0.834-0.381l0.053-0.273l-2.239-0.17c0,0-0.085-0.561,0.031-1.119c0.169-0.762,0.866-1.416,2.146-1.416
		c0.633,0,1.658,0.23,1.658,0.23L127.031,50.713L127.031,50.713z"/>
	<path fill="#0A69AD" d="M128.361,54.697h-0.845l0.031-0.635c-0.307-0.02-0.465-0.242-0.391-0.611
		c0.117-0.529,0.443-0.656,0.877-0.656c0.423,0,0.707,0.127,0.592,0.656L128.361,54.697L128.361,54.697z"/>
	<path fill="#0A69AD" d="M134.014,50.756c-0.634,0-0.855,0.381-1.003,1.078c-0.148,0.697-0.106,1.109,0.527,1.109h0.877l0.486-2.188
		H134.014z M135.462,53.451l-0.117,0.561L134.458,54l-0.127-0.273c0,0-0.782,0.336-1.311,0.336c-1.352,0-1.416-1.109-1.172-2.229
		c0.242-1.141,0.77-2.219,2.113-2.219c0.485,0,1.141,0.244,1.141,0.244l0.539-1.828h0.971L135.462,53.451L135.462,53.451z"/>
	<path fill="#0A69AD" d="M138.959,50.713c-0.823,0-1.089,0.465-1.236,1.141c-0.138,0.688-0.073,1.152,0.739,1.152
		c0.846,0,1.1-0.455,1.246-1.152C139.856,51.197,139.814,50.713,138.959,50.713L138.959,50.713z M138.241,54.074
		c-1.744,0-1.881-1.09-1.648-2.219c0.242-1.131,0.855-2.209,2.599-2.209c1.732,0,1.892,1.078,1.647,2.209
		C140.597,53.006,139.983,54.074,138.241,54.074z"/>
	<path fill="#0A69AD" d="M148.131,54.01l0.19-1.67l0.096-0.475c0.137-0.635,0.221-1.1-0.444-1.1h-0.518
		c0.021,0.328-0.042,0.697-0.127,1.088l-0.454,2.156h-0.982l0.189-1.67l0.096-0.475c0.137-0.635,0.221-1.1-0.443-1.1h-0.423
		l-0.698,3.244h-1.131l0.92-4.322h0.887l0.138,0.266c0,0,0.603-0.318,1.089-0.318c0.369,0,0.645,0.17,0.74,0.381
		c0.211-0.115,0.813-0.381,1.247-0.381c1.351,0,1.31,1.1,1.065,2.221l-0.453,2.154H148.131L148.131,54.01z"/>
	<path fill="#0A69AD" d="M152.622,50.713c-0.824,0-1.089,0.465-1.236,1.141c-0.137,0.688-0.074,1.152,0.739,1.152
		c0.845,0,1.099-0.455,1.247-1.152C153.521,51.197,153.478,50.713,152.622,50.713z M151.903,54.074c-1.744,0-1.881-1.09-1.648-2.219
		c0.243-1.131,0.855-2.209,2.6-2.209c1.732,0,1.891,1.078,1.648,2.209C154.26,53.006,153.646,54.074,151.903,54.074z"/>
	<path fill="#0A69AD" d="M157.438,51.57c0.147-0.676,0.105-0.803-0.242-0.803h-0.529l-0.338,1.586l-0.518,1.658h-0.982l0.803-3.762
		l0.116-0.551h0.897l0.116,0.254c0,0,0.518-0.307,1.026-0.307c1.076,0,0.991,0.812,0.76,1.924H157.438L157.438,51.57z"/>
	<path fill="#0A69AD" d="M161.224,50.66c-0.57,0-0.867,0.297-0.982,0.826l1.625-0.139C161.941,50.988,161.866,50.66,161.224,50.66
		L161.224,50.66z M160.081,52.266c-0.072,0.529,0.127,0.709,0.803,0.709h1.701l-0.168,0.803c0,0-1.025,0.285-1.785,0.285
		c-1.893,0-1.913-1.064-1.671-2.207c0.243-1.121,0.677-2.229,2.505-2.229c1.764,0,1.85,1.066,1.416,2.639H160.081L160.081,52.266z"
		/>
	<path fill="#0A69AD" d="M163.831,54.074c-0.445,0-0.719-0.127-0.603-0.645c0.104-0.529,0.433-0.654,0.878-0.654
		c0.41,0,0.695,0.125,0.592,0.654C164.581,53.936,164.243,54.074,163.831,54.074z"/>
</g>
</svg>
