<?xml version="1.0" encoding="utf-8"?>
<!-- Generator: Adobe Illustrator 16.0.0, SVG Export Plug-In . SVG Version: 6.00 Build 0)  -->
<!DOCTYPE svg PUBLIC "-//W3C//DTD SVG 1.1//EN" "http://www.w3.org/Graphics/SVG/1.1/DTD/svg11.dtd">
<svg version="1.1" id="Layer_1" xmlns="http://www.w3.org/2000/svg" xmlns:xlink="http://www.w3.org/1999/xlink" x="0px" y="0px"
	 width="200px" height="70px" viewBox="0 0 200 70" enable-background="new 0 0 200 70" xml:space="preserve">
<g id="layer1_1_" transform="translate(-115.94417,-501.42131)">
	<path id="path22" fill="#404238" d="M216.805,513.986c-0.115,0.001-0.232,0.029-0.336,0.089c-0.206,0.122-0.335,0.344-0.335,0.582
		v17.112c0,0.167-0.078,0.317-0.224,0.402c-0.146,0.084-0.323,0.084-0.47,0l-2.796-1.611c-0.417-0.239-0.925-0.239-1.342,0
		l-11.162,6.442c-0.417,0.24-0.671,0.704-0.671,1.185v12.885c0,0.48,0.254,0.922,0.671,1.164l11.162,6.441
		c0.417,0.24,0.924,0.24,1.342,0l11.163-6.441c0.416-0.242,0.67-0.684,0.67-1.164v-32.12c0-0.488-0.267-0.947-0.693-1.187
		l-6.643-3.712C217.036,513.995,216.921,513.985,216.805,513.986L216.805,513.986z M145.005,530.068
		c-0.213,0.009-0.412,0.046-0.604,0.157l-11.162,6.441c-0.415,0.24-0.67,0.679-0.67,1.165l0.022,17.289
		c0,0.24,0.124,0.465,0.335,0.58c0.208,0.125,0.465,0.125,0.671,0l6.621-3.801c0.419-0.25,0.693-0.684,0.693-1.164v-8.074
		c0-0.48,0.253-0.924,0.671-1.162l2.818-1.633c0.21-0.121,0.436-0.18,0.671-0.18c0.23,0,0.467,0.057,0.671,0.18l2.818,1.633
		c0.418,0.238,0.671,0.682,0.671,1.162v8.074c0,0.48,0.277,0.916,0.693,1.164l6.621,3.801c0.208,0.125,0.465,0.125,0.671,0
		c0.206-0.115,0.336-0.34,0.336-0.58l0.022-17.289c0-0.486-0.253-0.925-0.671-1.165l-11.162-6.441
		c-0.189-0.111-0.39-0.148-0.604-0.157H145.005L145.005,530.068z M245.302,530.225c-0.232,0-0.461,0.058-0.671,0.179l-11.161,6.442
		c-0.417,0.24-0.672,0.681-0.672,1.163v12.885c0,0.484,0.273,0.924,0.694,1.162l11.071,6.309c0.409,0.232,0.908,0.25,1.32,0.021
		l6.71-3.736c0.213-0.119,0.356-0.338,0.357-0.582c0.001-0.242-0.124-0.459-0.335-0.58l-11.229-6.443
		c-0.211-0.119-0.357-0.361-0.357-0.604v-4.025c0-0.24,0.148-0.461,0.357-0.582l3.489-2.014c0.208-0.119,0.462-0.119,0.671,0
		l3.489,2.014c0.208,0.121,0.336,0.342,0.336,0.582v3.176c0,0.242,0.126,0.461,0.335,0.582c0.21,0.119,0.463,0.121,0.671,0
		l6.688-3.893c0.415-0.24,0.671-0.682,0.671-1.162v-3.109c0-0.48-0.255-0.923-0.671-1.165l-11.095-6.44
		C245.764,530.283,245.535,530.225,245.302,530.225L245.302,530.225z M211.929,539.843c0.059,0,0.127,0.014,0.179,0.045l3.825,2.215
		c0.104,0.059,0.179,0.17,0.179,0.289v4.43c0,0.121-0.074,0.23-0.179,0.291l-3.825,2.215c-0.104,0.059-0.231,0.059-0.335,0
		l-3.825-2.215c-0.104-0.061-0.179-0.17-0.179-0.291v-4.43c0-0.119,0.075-0.23,0.179-0.289l3.825-2.215
		C211.825,539.857,211.871,539.843,211.929,539.843L211.929,539.843z"/>
	<path id="path28" fill="#87C540" d="M278.742,529.911c-0.388,0-0.764,0.08-1.097,0.269l-10.535,6.083
		c-0.682,0.393-1.096,1.135-1.096,1.924v12.146c0,0.789,0.414,1.529,1.096,1.924l2.752,1.588c1.336,0.658,1.83,0.648,2.438,0.648
		c1.979,0,3.109-1.199,3.109-3.287v-11.99c0-0.17-0.146-0.291-0.313-0.291h-1.319c-0.169,0-0.313,0.121-0.313,0.291v11.99
		c0,0.924-0.963,1.855-2.527,1.074l-2.863-1.68c-0.101-0.053-0.179-0.152-0.179-0.268v-12.146c0-0.113,0.077-0.232,0.179-0.289
		l10.513-6.062c0.099-0.057,0.215-0.057,0.313,0l10.513,6.062c0.101,0.061,0.179,0.172,0.179,0.289v12.146
		c0,0.115-0.058,0.236-0.157,0.291l-10.534,6.061c-0.091,0.055-0.215,0.055-0.313,0l-2.706-1.609c-0.081-0.047-0.19-0.045-0.269,0
		c-0.747,0.424-0.887,0.473-1.588,0.717c-0.173,0.059-0.436,0.152,0.089,0.447l3.534,2.08c0.336,0.193,0.712,0.289,1.097,0.289
		c0.39,0,0.759-0.096,1.096-0.289l10.535-6.062c0.681-0.396,1.096-1.135,1.096-1.924v-12.146c0-0.789-0.415-1.528-1.096-1.924
		l-10.535-6.083C279.508,529.992,279.129,529.911,278.742,529.911L278.742,529.911z M178.535,530.158
		c-0.233,0-0.463,0.06-0.671,0.179l-11.161,6.421c-0.417,0.24-0.671,0.703-0.671,1.186v12.883c0,0.482,0.254,0.922,0.671,1.162
		l11.161,6.443c0.417,0.24,0.925,0.24,1.342,0l11.162-6.443c0.417-0.24,0.671-0.68,0.671-1.162v-12.883
		c0-0.482-0.253-0.945-0.671-1.186l-11.162-6.421C178.997,530.217,178.766,530.158,178.535,530.158z M294.377,530.225v0.312h0.872
		v2.305h0.358v-2.305h0.894v-0.312H294.377z M296.814,530.225v2.617h0.336v-1.543c0-0.063,0.003-0.16,0-0.292
		c-0.005-0.133,0-0.248,0-0.312v-0.066l0.738,2.214h0.358l0.76-2.214c0,0.141-0.019,0.275-0.022,0.401c-0.001,0.122,0,0.214,0,0.269
		v1.544h0.335v-2.617h-0.492l-0.76,2.214l-0.738-2.214H296.814L296.814,530.225z M281.559,538.591c-2.999,0-4.786,1.275-4.786,3.4
		c0,2.303,1.772,2.936,4.652,3.221c3.444,0.336,3.714,0.842,3.714,1.521c0,1.176-0.938,1.676-3.154,1.676
		c-2.784,0-3.396-0.693-3.602-2.08c-0.023-0.148-0.139-0.268-0.291-0.268h-1.364c-0.168,0-0.312,0.145-0.312,0.312
		c0,1.773,0.964,3.869,5.569,3.869c3.334,0,5.256-1.309,5.256-3.6c0-2.275-1.553-2.883-4.787-3.312
		c-3.268-0.43-3.578-0.643-3.578-1.408c0-0.631,0.264-1.475,2.684-1.475c2.162,0,2.961,0.465,3.288,1.922
		c0.029,0.139,0.149,0.246,0.292,0.246h1.363c0.085,0,0.166-0.051,0.225-0.111c0.057-0.064,0.097-0.137,0.089-0.225
		C286.604,539.771,284.931,538.591,281.559,538.591L281.559,538.591z M245.28,541.656c-0.045,0-0.095,0-0.135,0.021l-2.147,1.254
		c-0.081,0.045-0.134,0.131-0.134,0.223v2.461c0,0.092,0.053,0.178,0.134,0.223l2.147,1.23c0.08,0.047,0.166,0.047,0.246,0
		l2.147-1.23c0.079-0.045,0.134-0.131,0.134-0.223v-2.461c0-0.092-0.055-0.178-0.134-0.223l-2.147-1.254
		C245.352,541.654,245.325,541.656,245.28,541.656z"/>
</g>
</svg>
